<svg width="24" height="25" viewBox="0 0 24 25" fill="none" xmlns="http://www.w3.org/2000/svg">
<path fill-rule="evenodd" clip-rule="evenodd" d="M19 4.2019H18V2.2019H16V4.2019H8V2.2019H6V4.2019H5C3.89 4.2019 3 5.1019 3 6.2019V20.2019C3 21.3019 3.89 22.2019 5 22.2019H19C20.1 22.2019 21 21.3019 21 20.2019V6.2019C21 5.1019 20.1 4.2019 19 4.2019ZM19 20.2019H5V9.2019H19V20.2019ZM6.5 13.2019C6.5 11.8219 7.62 10.7019 9 10.7019C10.38 10.7019 11.5 11.8219 11.5 13.2019C11.5 14.5819 10.38 15.7019 9 15.7019C7.62 15.7019 6.5 14.5819 6.5 13.2019Z" fill="black"/>
</svg>
