<svg width="24" height="25" viewBox="0 0 24 25" fill="none" xmlns="http://www.w3.org/2000/svg">
<path fill-rule="evenodd" clip-rule="evenodd" d="M11.99 2.2019C6.47 2.2019 2 6.6819 2 12.2019C2 17.7219 6.47 22.2019 11.99 22.2019C17.52 22.2019 22 17.7219 22 12.2019C22 6.6819 17.52 2.2019 11.99 2.2019ZM12 20.2019C7.58 20.2019 4 16.6219 4 12.2019C4 7.7819 7.58 4.2019 12 4.2019C16.42 4.2019 20 7.7819 20 12.2019C20 16.6219 16.42 20.2019 12 20.2019ZM11 13.2719L16.49 16.5619L17.51 14.8419L13 12.1319V6.6219H11V13.2719Z" fill="black"/>
</svg>
