<svg width="24" height="25" viewBox="0 0 24 25" fill="none" xmlns="http://www.w3.org/2000/svg">
<path d="M4 5.2019H6V8.2019H16V5.2019H18V10.2019H20V5.2019C20 4.1019 19.1 3.2019 18 3.2019H13.82C13.4 2.0419 12.3 1.2019 11 1.2019C9.7 1.2019 8.6 2.0419 8.18 3.2019H4C2.9 3.2019 2 4.1019 2 5.2019V19.2019C2 20.3019 2.9 21.2019 4 21.2019H9V19.2019H4V5.2019ZM11 3.2019C11.55 3.2019 12 3.6519 12 4.2019C12 4.7519 11.55 5.2019 11 5.2019C10.45 5.2019 10 4.7519 10 4.2019C10 3.6519 10.45 3.2019 11 3.2019Z" fill="black"/>
<path d="M19.3 19.1019C19.7 18.4019 20 17.6019 20 16.7019C20 14.2019 18 12.2019 15.5 12.2019C13 12.2019 11 14.2019 11 16.7019C11 19.2019 13 21.2019 15.5 21.2019C16.4 21.2019 17.2 20.9019 17.9 20.5019L20.6 23.2019L22 21.8019L19.3 19.1019ZM15.5 19.2019C14.1 19.2019 13 18.1019 13 16.7019C13 15.3019 14.1 14.2019 15.5 14.2019C16.9 14.2019 18 15.3019 18 16.7019C18 18.1019 16.9 19.2019 15.5 19.2019Z" fill="black"/>
</svg>
