<svg width="24" height="25" viewBox="0 0 24 25" fill="none" xmlns="http://www.w3.org/2000/svg">
<path d="M12 2.2019C8.13 2.2019 5 5.3319 5 9.2019C5 14.4519 12 22.2019 12 22.2019C12 22.2019 19 14.4519 19 9.2019C19 5.3319 15.87 2.2019 12 2.2019ZM7 9.2019C7 6.4419 9.24 4.2019 12 4.2019C14.76 4.2019 17 6.4419 17 9.2019C17 12.0819 14.12 16.3919 12 19.0819C9.92 16.4119 7 12.0519 7 9.2019Z" fill="black"/>
<path d="M12 11.7019C13.3807 11.7019 14.5 10.5826 14.5 9.2019C14.5 7.82119 13.3807 6.7019 12 6.7019C10.6193 6.7019 9.5 7.82119 9.5 9.2019C9.5 10.5826 10.6193 11.7019 12 11.7019Z" fill="black"/>
</svg>
