<svg width="48" height="49" viewBox="0 0 48 49" fill="none" xmlns="http://www.w3.org/2000/svg">
<g clip-path="url(#clip0_157_5026)">
<path fill-rule="evenodd" clip-rule="evenodd" d="M31 16.2021H30V14.2021H28V16.2021H20V14.2021H18V16.2021H17C15.89 16.2021 15 17.1021 15 18.2021V32.2021C15 33.3021 15.89 34.2021 17 34.2021H31C32.1 34.2021 33 33.3021 33 32.2021V18.2021C33 17.1021 32.1 16.2021 31 16.2021ZM31 32.2021H17V21.2021H31V32.2021ZM18.5 25.2021C18.5 23.8221 19.62 22.7021 21 22.7021C22.38 22.7021 23.5 23.8221 23.5 25.2021C23.5 26.5821 22.38 27.7021 21 27.7021C19.62 27.7021 18.5 26.5821 18.5 25.2021Z" fill="#1C4587"/>
</g>
<defs>
<clipPath id="clip0_157_5026">
<rect x="4" y="4.20215" width="40" height="40" rx="20" fill="white"/>
</clipPath>
</defs>
</svg>
