<svg width="48" height="49" viewBox="0 0 48 49" fill="none" xmlns="http://www.w3.org/2000/svg">
<g clip-path="url(#clip0_157_5056)">
<path d="M16 17.2021H18V20.2021H28V17.2021H30V22.2021H32V17.2021C32 16.1021 31.1 15.2021 30 15.2021H25.82C25.4 14.0421 24.3 13.2021 23 13.2021C21.7 13.2021 20.6 14.0421 20.18 15.2021H16C14.9 15.2021 14 16.1021 14 17.2021V31.2021C14 32.3021 14.9 33.2021 16 33.2021H21V31.2021H16V17.2021ZM23 15.2021C23.55 15.2021 24 15.6521 24 16.2021C24 16.7521 23.55 17.2021 23 17.2021C22.45 17.2021 22 16.7521 22 16.2021C22 15.6521 22.45 15.2021 23 15.2021Z" fill="#1C4587"/>
<path d="M31.3 31.1021C31.7 30.4021 32 29.6021 32 28.7021C32 26.2021 30 24.2021 27.5 24.2021C25 24.2021 23 26.2021 23 28.7021C23 31.2021 25 33.2021 27.5 33.2021C28.4 33.2021 29.2 32.9021 29.9 32.5021L32.6 35.2021L34 33.8021L31.3 31.1021ZM27.5 31.2021C26.1 31.2021 25 30.1021 25 28.7021C25 27.3021 26.1 26.2021 27.5 26.2021C28.9 26.2021 30 27.3021 30 28.7021C30 30.1021 28.9 31.2021 27.5 31.2021Z" fill="#1C4587"/>
</g>
<defs>
<clipPath id="clip0_157_5056">
<rect x="4" y="4.20215" width="40" height="40" rx="20" fill="white"/>
</clipPath>
</defs>
</svg>
