<svg width="48" height="49" viewBox="0 0 48 49" fill="none" xmlns="http://www.w3.org/2000/svg">
<g clip-path="url(#clip0_157_5006)">
<path d="M24 14.2021C20.13 14.2021 17 17.3321 17 21.2021C17 26.4521 24 34.2021 24 34.2021C24 34.2021 31 26.4521 31 21.2021C31 17.3321 27.87 14.2021 24 14.2021ZM19 21.2021C19 18.4421 21.24 16.2021 24 16.2021C26.76 16.2021 29 18.4421 29 21.2021C29 24.0821 26.12 28.3921 24 31.0821C21.92 28.4121 19 24.0521 19 21.2021Z" fill="#1C4587"/>
<path d="M24 23.7021C25.3807 23.7021 26.5 22.5829 26.5 21.2021C26.5 19.8214 25.3807 18.7021 24 18.7021C22.6193 18.7021 21.5 19.8214 21.5 21.2021C21.5 22.5829 22.6193 23.7021 24 23.7021Z" fill="#1C4587"/>
</g>
<defs>
<clipPath id="clip0_157_5006">
<rect x="4" y="4.20215" width="40" height="40" rx="20" fill="white"/>
</clipPath>
</defs>
</svg>
