<svg width="48" height="49" viewBox="0 0 48 49" fill="none" xmlns="http://www.w3.org/2000/svg">
<g clip-path="url(#clip0_157_4270)">
<path d="M24.9091 30.55V28.7239H17.6364V30.55H24.9091Z" fill="#1C4587"/>
<path d="M24.9091 26.8978V25.0717H17.6364V26.8978H24.9091Z" fill="#1C4587"/>
<path fill-rule="evenodd" clip-rule="evenodd" d="M19.4545 15.9413V15.0282C19.4545 14.0239 20.2727 13.2021 21.2727 13.2021H28.5455L34 18.6804V29.6369C34 30.6413 33.1818 31.463 32.1818 31.463H28.5455V32.3761C28.5455 33.3804 27.7273 34.2021 26.7273 34.2021H15.8091C14.8091 34.2021 14 33.3804 14 32.3761V17.7674C14 16.763 14.8182 15.9413 15.8182 15.9413H19.4545ZM32.1818 19.5935V29.6369H28.5455V27.8108H30.3636V25.9848H28.5455V24.1587H30.3636V22.3326H28.5455V21.4195L23.0909 15.9413H21.2727V15.0282H27.6364V19.5935H32.1818ZM15.8182 32.3761H26.7273V22.3326H22.1818V17.7674H15.8182V32.3761Z" fill="#1C4587"/>
</g>
<defs>
<clipPath id="clip0_157_4270">
<rect x="4" y="4.20215" width="40" height="40" rx="20" fill="white"/>
</clipPath>
</defs>
</svg>
