<svg width="48" height="49" viewBox="0 0 48 49" fill="none" xmlns="http://www.w3.org/2000/svg">
<g clip-path="url(#clip0_157_5041)">
<path fill-rule="evenodd" clip-rule="evenodd" d="M23.99 14.2021C18.47 14.2021 14 18.6821 14 24.2021C14 29.7221 18.47 34.2021 23.99 34.2021C29.52 34.2021 34 29.7221 34 24.2021C34 18.6821 29.52 14.2021 23.99 14.2021ZM24 32.2021C19.58 32.2021 16 28.6221 16 24.2021C16 19.7821 19.58 16.2021 24 16.2021C28.42 16.2021 32 19.7821 32 24.2021C32 28.6221 28.42 32.2021 24 32.2021ZM23 25.2721L28.49 28.5621L29.51 26.8421L25 24.1321V18.6221H23V25.2721Z" fill="#1C4587"/>
</g>
<defs>
<clipPath id="clip0_157_5041">
<rect x="4" y="4.20215" width="40" height="40" rx="20" fill="white"/>
</clipPath>
</defs>
</svg>
